<svg xmlns="http://www.w3.org/2000/svg" width="490.434" height="490.433" viewBox="0 0 490.434 490.433"><path d="M472.003 58.36L458.87 47.078c-21.797-18.732-54.553-16.644-73.798 4.697L165.39 295.36l-66.312-57.113c-21.775-18.753-54.536-16.707-73.804 4.61l-11.61 12.85C4.246 266.118-.643 279.854.067 293.886c.717 14.022 6.973 27.187 17.402 36.6l121.553 111.31c10.524 9.883 24.628 15.037 39.044 14.272 14.416-.764 27.894-7.387 37.31-18.33l262.246-304.71c9.162-10.646 13.717-24.494 12.66-38.496-1.054-14.012-7.628-27.022-18.28-36.174z"/></svg>
